<?xml version="1.0" encoding="UTF-8" standalone="no"?>
<!-- Created with Inkscape (http://www.inkscape.org/) -->

<svg
   xmlns:dc="http://purl.org/dc/elements/1.1/"
   xmlns:cc="http://creativecommons.org/ns#"
   xmlns:rdf="http://www.w3.org/1999/02/22-rdf-syntax-ns#"
   xmlns:svg="http://www.w3.org/2000/svg"
   xmlns="http://www.w3.org/2000/svg"
   xmlns:sodipodi="http://sodipodi.sourceforge.net/DTD/sodipodi-0.dtd"
   xmlns:inkscape="http://www.inkscape.org/namespaces/inkscape"
   width="744.09448819"
   height="1052.3622047"
   id="svg2"
   version="1.1"
   inkscape:version="0.48.3.1 r9886"
   sodipodi:docname="levelEx.svg">
  <defs
     id="defs4">
    <inkscape:path-effect
       effect="spiro"
       id="path-effect4245"
       is_visible="true" />
    <inkscape:path-effect
       effect="spiro"
       id="path-effect4239"
       is_visible="true" />
    <inkscape:path-effect
       effect="spiro"
       id="path-effect4233"
       is_visible="true" />
    <inkscape:path-effect
       effect="spiro"
       id="path-effect4225"
       is_visible="true" />
    <inkscape:path-effect
       effect="spiro"
       id="path-effect4221"
       is_visible="true" />
    <inkscape:path-effect
       effect="spiro"
       id="path-effect4217"
       is_visible="true" />
    <inkscape:path-effect
       effect="spiro"
       id="path-effect4211"
       is_visible="true" />
    <inkscape:path-effect
       effect="spiro"
       id="path-effect4112"
       is_visible="true" />
    <inkscape:path-effect
       effect="spiro"
       id="path-effect4108"
       is_visible="true" />
    <inkscape:path-effect
       effect="spiro"
       id="path-effect4104"
       is_visible="true" />
    <inkscape:path-effect
       effect="spiro"
       id="path-effect3050"
       is_visible="true" />
    <inkscape:path-effect
       effect="spiro"
       id="path-effect3042"
       is_visible="true" />
    <inkscape:path-effect
       effect="spiro"
       id="path-effect3038"
       is_visible="true" />
    <inkscape:path-effect
       effect="spiro"
       id="path-effect3032"
       is_visible="true" />
    <inkscape:path-effect
       effect="spiro"
       id="path-effect3003"
       is_visible="true" />
    <inkscape:path-effect
       effect="spiro"
       id="path-effect2999"
       is_visible="true" />
    <inkscape:path-effect
       effect="spiro"
       id="path-effect2987"
       is_visible="true" />
    <inkscape:path-effect
       effect="spiro"
       id="path-effect3003-7"
       is_visible="true" />
    <clipPath
       clipPathUnits="userSpaceOnUse"
       id="clipPath3829">
      <rect
         style="fill:#ffffff;fill-opacity:1;stroke:#ffffff;stroke-opacity:1"
         id="rect3831"
         width="180"
         height="231.42857"
         x="225.71429"
         y="75.219322" />
    </clipPath>
    <clipPath
       clipPathUnits="userSpaceOnUse"
       id="clipPath3829-6">
      <rect
         style="fill:#ffffff;fill-opacity:1;stroke:#ffffff;stroke-opacity:1"
         id="rect3831-0"
         width="180"
         height="231.42857"
         x="225.71429"
         y="75.219322" />
    </clipPath>
    <inkscape:path-effect
       effect="spiro"
       id="path-effect3050-5"
       is_visible="true" />
    <inkscape:path-effect
       effect="spiro"
       id="path-effect3042-0"
       is_visible="true" />
    <clipPath
       clipPathUnits="userSpaceOnUse"
       id="clipPath3829-6-3">
      <rect
         style="fill:#ffffff;fill-opacity:1;stroke:#ffffff;stroke-opacity:1"
         id="rect3831-0-1"
         width="180"
         height="231.42857"
         x="225.71429"
         y="75.219322" />
    </clipPath>
    <inkscape:path-effect
       effect="spiro"
       id="path-effect3050-5-6"
       is_visible="true" />
    <inkscape:path-effect
       effect="spiro"
       id="path-effect3042-0-2"
       is_visible="true" />
    <clipPath
       clipPathUnits="userSpaceOnUse"
       id="clipPath3829-2">
      <rect
         style="fill:#ffffff;fill-opacity:1;stroke:#ffffff;stroke-opacity:1"
         id="rect3831-4"
         width="180"
         height="231.42857"
         x="225.71429"
         y="75.219322" />
    </clipPath>
    <inkscape:path-effect
       effect="spiro"
       id="path-effect3050-0"
       is_visible="true" />
    <inkscape:path-effect
       effect="spiro"
       id="path-effect3042-3"
       is_visible="true" />
    <clipPath
       clipPathUnits="userSpaceOnUse"
       id="clipPath3829-6-3-7">
      <rect
         style="fill:#ffffff;fill-opacity:1;stroke:#ffffff;stroke-opacity:1"
         id="rect3831-0-1-5"
         width="180"
         height="231.42857"
         x="225.71429"
         y="75.219322" />
    </clipPath>
    <inkscape:path-effect
       effect="spiro"
       id="path-effect3050-5-6-9"
       is_visible="true" />
    <inkscape:path-effect
       effect="spiro"
       id="path-effect3042-0-2-7"
       is_visible="true" />
    <clipPath
       clipPathUnits="userSpaceOnUse"
       id="clipPath3829-2-1">
      <rect
         style="fill:#ffffff;fill-opacity:1;stroke:#ffffff;stroke-opacity:1"
         id="rect3831-4-9"
         width="180"
         height="231.42857"
         x="225.71429"
         y="75.219322" />
    </clipPath>
    <inkscape:path-effect
       effect="spiro"
       id="path-effect3050-0-3"
       is_visible="true" />
    <inkscape:path-effect
       effect="spiro"
       id="path-effect3042-3-7"
       is_visible="true" />
    <clipPath
       clipPathUnits="userSpaceOnUse"
       id="clipPath3829-6-4">
      <rect
         style="fill:#ffffff;fill-opacity:1;stroke:#ffffff;stroke-opacity:1"
         id="rect3831-0-4"
         width="180"
         height="231.42857"
         x="225.71429"
         y="75.219322" />
    </clipPath>
    <inkscape:path-effect
       effect="spiro"
       id="path-effect3050-5-0"
       is_visible="true" />
    <inkscape:path-effect
       effect="spiro"
       id="path-effect3042-0-5"
       is_visible="true" />
    <clipPath
       clipPathUnits="userSpaceOnUse"
       id="clipPath3829-0">
      <rect
         style="fill:#ffffff;fill-opacity:1;stroke:#ffffff;stroke-opacity:1"
         id="rect3831-2"
         width="180"
         height="231.42857"
         x="225.71429"
         y="75.219322" />
    </clipPath>
    <inkscape:path-effect
       effect="spiro"
       id="path-effect3050-8"
       is_visible="true" />
    <inkscape:path-effect
       effect="spiro"
       id="path-effect3042-4"
       is_visible="true" />
  </defs>
  <sodipodi:namedview
     id="base"
     pagecolor="#ffffff"
     bordercolor="#666666"
     borderopacity="1.0"
     inkscape:pageopacity="0.0"
     inkscape:pageshadow="2"
     inkscape:zoom="0.7"
     inkscape:cx="238.47009"
     inkscape:cy="733.44055"
     inkscape:document-units="px"
     inkscape:current-layer="layer1"
     showgrid="false"
     inkscape:window-width="1280"
     inkscape:window-height="728"
     inkscape:window-x="0"
     inkscape:window-y="24"
     inkscape:window-maximized="1" />
  <metadata
     id="metadata7">
    <rdf:RDF>
      <cc:Work
         rdf:about="">
        <dc:format>image/svg+xml</dc:format>
        <dc:type
           rdf:resource="http://purl.org/dc/dcmitype/StillImage" />
        <dc:title />
      </cc:Work>
    </rdf:RDF>
  </metadata>
  <g
     inkscape:label="Layer 1"
     inkscape:groupmode="layer"
     id="layer1">
    <path
       style="fill:none;stroke:#000000;stroke-width:0.66394049px;stroke-linecap:butt;stroke-linejoin:miter;stroke-opacity:1"
       d="m 5.7142846,72.171548 0,42.192492"
       id="path3040"
       inkscape:path-effect="#path-effect3042"
       inkscape:original-d="m 5.7142846,72.171548 0,42.192492"
       inkscape:connector-curvature="0" />
    <path
       style="fill:none;stroke:#000000;stroke-width:0.51604378px;stroke-linecap:butt;stroke-linejoin:miter;stroke-opacity:1"
       d="m 5.7142896,155.83976 0,49.83636"
       id="path3048"
       inkscape:path-effect="#path-effect3050"
       inkscape:original-d="m 5.7142896,155.83976 0,49.83636"
       inkscape:connector-curvature="0" />
    <path
       sodipodi:type="arc"
       style="fill:#ffffff;fill-opacity:1;stroke:#000000;stroke-opacity:1"
       id="path3054"
       sodipodi:cx="409.28571"
       sodipodi:cy="186.6479"
       sodipodi:rx="123.57143"
       sodipodi:ry="64.285713"
       d="m 532.85713,186.6479 a 123.57143,64.285713 0 1 1 -247.14285,0 123.57143,64.285713 0 1 1 247.14285,0 z"
       transform="matrix(-1,0,0,0.32079668,410.92858,74.942548)"
       clip-path="url(#clipPath3829)" />
    <path
       style="fill:none;stroke:#000000;stroke-width:0.66394049px;stroke-linecap:butt;stroke-linejoin:miter;stroke-opacity:1"
       d="m 295.42757,72.825836 0,42.192494"
       id="path3040-6"
       inkscape:path-effect="#path-effect3042-0"
       inkscape:original-d="m 295.42757,72.825836 0,42.192494"
       inkscape:connector-curvature="0" />
    <path
       style="fill:none;stroke:#000000;stroke-width:0.51604378px;stroke-linecap:butt;stroke-linejoin:miter;stroke-opacity:1"
       d="m 295.42757,156.49405 0,49.83636"
       id="path3048-3"
       inkscape:path-effect="#path-effect3050-5"
       inkscape:original-d="m 295.42757,156.49405 0,49.83636"
       inkscape:connector-curvature="0" />
    <path
       sodipodi:type="arc"
       style="fill:#ffffff;fill-opacity:1;stroke:#000000;stroke-opacity:1"
       id="path3054-0"
       sodipodi:cx="409.28571"
       sodipodi:cy="186.6479"
       sodipodi:rx="123.57143"
       sodipodi:ry="64.285713"
       d="m 532.85713,186.6479 a 123.57143,64.285713 0 1 1 -247.14285,0 123.57143,64.285713 0 1 1 247.14285,0 z"
       transform="matrix(1,0,0,0.32079668,-109.78673,75.596835)"
       clip-path="url(#clipPath3829-6)" />
    <path
       style="fill:none;stroke:#000000;stroke-width:0.66394049px;stroke-linecap:butt;stroke-linejoin:miter;stroke-opacity:1"
       d="m 5.1433576,205.37353 0,42.19248"
       id="path3040-9"
       inkscape:path-effect="#path-effect3042-3"
       inkscape:original-d="m 5.1433576,205.37353 0,42.19248"
       inkscape:connector-curvature="0" />
    <path
       style="fill:none;stroke:#000000;stroke-width:0.51604378px;stroke-linecap:butt;stroke-linejoin:miter;stroke-opacity:1"
       d="m 5.1433576,289.04174 0,49.83636"
       id="path3048-0"
       inkscape:path-effect="#path-effect3050-0"
       inkscape:original-d="m 5.1433576,289.04174 0,49.83636"
       inkscape:connector-curvature="0" />
    <path
       sodipodi:type="arc"
       style="fill:#ffffff;fill-opacity:1;stroke:#000000;stroke-opacity:1"
       id="path3054-9"
       sodipodi:cx="409.28571"
       sodipodi:cy="186.6479"
       sodipodi:rx="123.57143"
       sodipodi:ry="64.285713"
       d="m 532.85713,186.6479 a 123.57143,64.285713 0 1 1 -247.14285,0 123.57143,64.285713 0 1 1 247.14285,0 z"
       transform="matrix(-1,0,0,0.32079668,410.35765,208.14453)"
       clip-path="url(#clipPath3829-2)" />
    <path
       style="fill:none;stroke:#000000;stroke-width:0.66394049px;stroke-linecap:butt;stroke-linejoin:miter;stroke-opacity:1"
       d="m 294.85664,206.02782 0,42.19248"
       id="path3040-6-2"
       inkscape:path-effect="#path-effect3042-0-2"
       inkscape:original-d="m 294.85664,206.02782 0,42.19248"
       inkscape:connector-curvature="0" />
    <path
       style="fill:none;stroke:#000000;stroke-width:0.51604378px;stroke-linecap:butt;stroke-linejoin:miter;stroke-opacity:1"
       d="m 294.85664,289.69602 0,49.83637"
       id="path3048-3-0"
       inkscape:path-effect="#path-effect3050-5-6"
       inkscape:original-d="m 294.85664,289.69602 0,49.83637"
       inkscape:connector-curvature="0" />
    <path
       sodipodi:type="arc"
       style="fill:#ffffff;fill-opacity:1;stroke:#000000;stroke-opacity:1"
       id="path3054-0-6"
       sodipodi:cx="409.28571"
       sodipodi:cy="186.6479"
       sodipodi:rx="123.57143"
       sodipodi:ry="64.285713"
       d="m 532.85713,186.6479 a 123.57143,64.285713 0 1 1 -247.14285,0 123.57143,64.285713 0 1 1 247.14285,0 z"
       transform="matrix(1,0,0,0.32079668,-110.35765,208.79882)"
       clip-path="url(#clipPath3829-6-3)" />
    <path
       style="fill:none;stroke:#000000;stroke-width:0.66394049px;stroke-linecap:butt;stroke-linejoin:miter;stroke-opacity:1"
       d="m 5.4288206,338.39966 0,42.19249"
       id="path3040-4"
       inkscape:path-effect="#path-effect3042-4"
       inkscape:original-d="m 5.4288206,338.39966 0,42.19249"
       inkscape:connector-curvature="0" />
    <path
       style="fill:none;stroke:#000000;stroke-width:0.51604378px;stroke-linecap:butt;stroke-linejoin:miter;stroke-opacity:1"
       d="m 5.4288206,379.21073 0,49.83637"
       id="path3048-35"
       inkscape:path-effect="#path-effect3050-8"
       inkscape:original-d="m 5.4288206,379.21073 0,49.83637"
       inkscape:connector-curvature="0" />
    <path
       style="fill:none;stroke:#000000;stroke-width:0.66394049px;stroke-linecap:butt;stroke-linejoin:miter;stroke-opacity:1"
       d="m 295.14211,339.05395 0,42.19249"
       id="path3040-6-4"
       inkscape:path-effect="#path-effect3042-0-5"
       inkscape:original-d="m 295.14211,339.05395 0,42.19249"
       inkscape:connector-curvature="0" />
    <path
       style="fill:none;stroke:#000000;stroke-width:0.51604378px;stroke-linecap:butt;stroke-linejoin:miter;stroke-opacity:1"
       d="m 295.14211,379.86502 0,49.83637"
       id="path3048-3-07"
       inkscape:path-effect="#path-effect3050-5-0"
       inkscape:original-d="m 295.14211,379.86502 0,49.83637"
       inkscape:connector-curvature="0" />
    <path
       style="fill:none;stroke:#000000;stroke-width:0.66394049px;stroke-linecap:butt;stroke-linejoin:miter;stroke-opacity:1"
       d="m 4.8578906,428.74451 0,42.19247"
       id="path3040-9-3"
       inkscape:path-effect="#path-effect3042-3-7"
       inkscape:original-d="m 4.8578906,428.74451 0,42.19247"
       inkscape:connector-curvature="0" />
    <path
       style="fill:none;stroke:#000000;stroke-width:0.51604378px;stroke-linecap:butt;stroke-linejoin:miter;stroke-opacity:1"
       d="m 4.8578906,512.4127 0,49.83639"
       id="path3048-0-4"
       inkscape:path-effect="#path-effect3050-0-3"
       inkscape:original-d="m 4.8578906,512.4127 0,49.83639"
       inkscape:connector-curvature="0" />
    <path
       sodipodi:type="arc"
       style="fill:#ffffff;fill-opacity:1;stroke:#000000;stroke-opacity:1"
       id="path3054-9-8"
       sodipodi:cx="409.28571"
       sodipodi:cy="186.6479"
       sodipodi:rx="123.57143"
       sodipodi:ry="64.285713"
       d="m 532.85713,186.6479 a 123.57143,64.285713 0 1 1 -247.14285,0 123.57143,64.285713 0 1 1 247.14285,0 z"
       transform="matrix(-1,0,0,0.32079668,410.07219,431.51551)"
       clip-path="url(#clipPath3829-2-1)" />
    <path
       style="fill:none;stroke:#000000;stroke-width:0.66394049px;stroke-linecap:butt;stroke-linejoin:miter;stroke-opacity:1"
       d="m 294.57118,429.3988 0,42.19249"
       id="path3040-6-2-8"
       inkscape:path-effect="#path-effect3042-0-2-7"
       inkscape:original-d="m 294.57118,429.3988 0,42.19249"
       inkscape:connector-curvature="0" />
    <path
       style="fill:none;stroke:#000000;stroke-width:0.51604378px;stroke-linecap:butt;stroke-linejoin:miter;stroke-opacity:1"
       d="m 294.57118,513.06701 0,49.83635"
       id="path3048-3-0-6"
       inkscape:path-effect="#path-effect3050-5-6-9"
       inkscape:original-d="m 294.57118,513.06701 0,49.83635"
       inkscape:connector-curvature="0" />
    <path
       sodipodi:type="arc"
       style="fill:#ffffff;fill-opacity:1;stroke:#000000;stroke-opacity:1"
       id="path3054-0-6-6"
       sodipodi:cx="409.28571"
       sodipodi:cy="186.6479"
       sodipodi:rx="123.57143"
       sodipodi:ry="64.285713"
       d="m 532.85713,186.6479 a 123.57143,64.285713 0 1 1 -247.14285,0 123.57143,64.285713 0 1 1 247.14285,0 z"
       transform="matrix(1,0,0,0.32079668,-110.64312,432.16979)"
       clip-path="url(#clipPath3829-6-3-7)" />
    <rect
       style="fill:#000000;fill-opacity:1;stroke:#ffffff;stroke-width:0.67092192;stroke-opacity:1"
       id="rect4075"
       width="13.357142"
       height="37.551472"
       x="142.85715"
       y="162.36218" />
    <rect
       style="fill:#000000;fill-opacity:1;stroke:#ffffff;stroke-width:0.74626046;stroke-opacity:1"
       id="rect4075-4"
       width="13.357142"
       height="46.458363"
       x="144.75002"
       y="302.15787" />
    <rect
       style="fill:#000000;fill-opacity:1;stroke:#ffffff;stroke-width:0.67092192;stroke-opacity:1"
       id="rect4075-9"
       width="13.357142"
       height="37.551472"
       x="143.32144"
       y="519.30078" />
    <path
       style="fill:none;stroke:#000000;stroke-width:1px;stroke-linecap:butt;stroke-linejoin:miter;stroke-opacity:1"
       d="m 5.7142856,72.362182 0,-58.571429"
       id="path4102"
       inkscape:path-effect="#path-effect4104"
       inkscape:original-d="m 5.7142856,72.362182 0,-58.571429"
       inkscape:connector-curvature="0" />
    <path
       style="fill:none;stroke:#000000;stroke-width:1px;stroke-linecap:butt;stroke-linejoin:miter;stroke-opacity:1"
       d="m 294.28572,72.362182 0,-61.428571"
       id="path4106"
       inkscape:path-effect="#path-effect4108"
       inkscape:original-d="m 294.28572,72.362182 0,-61.428571"
       inkscape:connector-curvature="0" />
    <path
       style="fill:#0000ff;stroke:#000000;stroke-width:0.45649743px;stroke-linecap:butt;stroke-linejoin:miter;stroke-opacity:1"
       d="M 135.44253,4.9392431 150.41483,32.633931 165.98603,3.5189991 151.01373,17.011285 135.44253,4.9392431"
       id="path4110"
       inkscape:path-effect="#path-effect4112"
       inkscape:original-d="m 135.44253,4.9392431 14.9723,27.6946879 15.5712,-29.1149319 -14.9723,13.4922859 z"
       inkscape:connector-curvature="0" />
    <path
       sodipodi:type="arc"
       style="fill:#ffff00;fill-opacity:1;stroke:#ffffff;stroke-opacity:1"
       id="path4116"
       sodipodi:cx="555.71429"
       sodipodi:cy="408.07648"
       sodipodi:rx="30"
       sodipodi:ry="30"
       d="m 585.71429,408.07648 a 30,30 0 1 1 -60,0 30,30 0 1 1 60,0 z"
       transform="matrix(0.20374707,0,0,0.20374707,-0.36801243,82.074946)" />
    <path
       sodipodi:type="arc"
       style="fill:#ffff00;fill-opacity:1;stroke:#ffffff;stroke-opacity:1"
       id="path4116-5"
       sodipodi:cx="555.71429"
       sodipodi:cy="408.07648"
       sodipodi:rx="30"
       sodipodi:ry="30"
       d="m 585.71429,408.07648 a 30,30 0 1 1 -60,0 30,30 0 1 1 60,0 z"
       transform="matrix(0.20374707,0,0,0.20374707,-34.65373,83.503508)" />
    <path
       sodipodi:type="arc"
       style="fill:#ffff00;fill-opacity:1;stroke:#ffffff;stroke-opacity:1"
       id="path4116-1"
       sodipodi:cx="555.71429"
       sodipodi:cy="408.07648"
       sodipodi:rx="30"
       sodipodi:ry="30"
       d="m 585.71429,408.07648 a 30,30 0 1 1 -60,0 30,30 0 1 1 60,0 z"
       transform="matrix(0.20374707,0,0,0.20374707,-60.368015,100.64637)" />
    <path
       sodipodi:type="arc"
       style="fill:#ffff00;fill-opacity:1;stroke:#ffffff;stroke-opacity:1"
       id="path4116-97"
       sodipodi:cx="555.71429"
       sodipodi:cy="408.07648"
       sodipodi:rx="30"
       sodipodi:ry="30"
       d="m 585.71429,408.07648 a 30,30 0 1 1 -60,0 30,30 0 1 1 60,0 z"
       transform="matrix(0.20374707,0,0,0.20374707,15.346269,104.93209)" />
    <rect
       style="fill:#ff0000;fill-opacity:1;stroke:#ffffff;stroke-width:0.3375394;stroke-opacity:1"
       id="rect4157"
       width="14.948174"
       height="14.948174"
       x="193.95448"
       y="164.88808" />
    <rect
       style="fill:#ff0000;fill-opacity:1;stroke:#ffffff;stroke-width:0.3375394;stroke-opacity:1"
       id="rect4157-6"
       width="14.948174"
       height="14.948174"
       x="119.66878"
       y="42.030956" />
    <rect
       style="fill:#ff0000;fill-opacity:1;stroke:#ffffff;stroke-width:0.3375394;stroke-opacity:1"
       id="rect4157-2"
       width="14.948174"
       height="14.948174"
       x="228.24022"
       y="164.88809" />
    <rect
       style="fill:#ff0000;fill-opacity:1;stroke:#ffffff;stroke-width:0.3375394;stroke-opacity:1"
       id="rect4157-7"
       width="14.948174"
       height="14.948174"
       x="179.66875"
       y="186.31667" />
    <rect
       style="fill:#ff0000;fill-opacity:1;stroke:#ffffff;stroke-width:0.3375394;stroke-opacity:1"
       id="rect4157-3"
       width="14.948174"
       height="14.948174"
       x="209.66878"
       y="189.17381" />
    <path
       style="fill:none;stroke:#000000;stroke-width:1px;stroke-linecap:butt;stroke-linejoin:miter;stroke-opacity:1"
       d="m 5.0000006,154.50504 0.714285,-40.71428"
       id="path4209"
       inkscape:path-effect="#path-effect4211"
       inkscape:original-d="m 5.0000006,154.50504 0.714285,-40.71428"
       inkscape:connector-curvature="0" />
    <path
       style="fill:#000000;fill-opacity:1;stroke:#ffffff;stroke-width:0.71428573;stroke-opacity:1"
       d="m 6.1097706,135.03637 c 0,-10.84182 0.241072,-19.8393 0.535714,-19.9944 0.294643,-0.15509 8.7321444,-0.0294 18.7500044,0.27921 59.60357,1.83645 103.218561,11.07581 98.735091,20.91595 -4.04907,8.88675 -47.974941,16.82902 -99.985091,18.07838 l -18.0357184,0.43325 0,-19.71239 z"
       id="path4213"
       inkscape:connector-curvature="0" />
    <path
       style="fill:none;stroke:#000000;stroke-width:1px;stroke-linecap:butt;stroke-linejoin:miter;stroke-opacity:1"
       d="m 295,114.50504 0,41.42857"
       id="path4219"
       inkscape:path-effect="#path-effect4221"
       inkscape:original-d="m 295,114.50504 0,41.42857"
       inkscape:connector-curvature="0" />
    <path
       style="fill:none;stroke:#000000;stroke-width:1px;stroke-linecap:butt;stroke-linejoin:miter;stroke-opacity:1"
       d="m 295,248.07647 -1.42857,40.71429"
       id="path4223"
       inkscape:path-effect="#path-effect4225"
       inkscape:original-d="m 295,248.07647 -1.42857,40.71429"
       inkscape:connector-curvature="0" />
    <path
       style="fill:#000000;fill-opacity:1;stroke:#ffffff;stroke-width:0.71428573;stroke-opacity:1"
       d="m 260.75263,154.47726 c -41.56408,-2.46294 -73.20048,-8.35575 -81.47463,-15.176 -4.21535,-3.47465 -3.04943,-6.57486 3.77166,-10.02897 12.07062,-6.1124 48.98652,-11.81277 83.7744,-12.93603 6.875,-0.22199 15.79464,-0.58103 19.82143,-0.79788 l 7.32143,-0.39427 0,20.04778 0,20.04777 -11.96429,-0.10608 c -6.58036,-0.0583 -16.14286,-0.35369 -21.25,-0.65632 l 0,0 z"
       id="path4227"
       inkscape:connector-curvature="0" />
    <path
       style="fill:#000000;fill-opacity:1;stroke:#ffffff;stroke-width:0.71428573;stroke-opacity:1"
       d="m 268.60977,288.03924 c -48.03247,-1.9592 -87.50874,-9.45085 -91.77158,-17.41604 -1.36492,-2.55037 -0.62609,-4.1322 3.09339,-6.62296 10.04184,-6.72454 40.5379,-12.001 83.67819,-14.47809 6.67857,-0.38348 16.27883,-0.70035 21.33391,-0.70415 l 9.19105,-0.007 -0.47026,17.32143 c -0.25864,9.52678 -0.64608,18.52678 -0.86098,20 l -0.39072,2.67857 -5.11578,-0.10914 c -2.81368,-0.06 -11.22293,-0.35824 -18.68722,-0.66271 z"
       id="path4229"
       inkscape:connector-curvature="0" />
    <path
       style="fill:none;stroke:#000000;stroke-width:1px;stroke-linecap:butt;stroke-linejoin:miter;stroke-opacity:1"
       d="m 5.7142856,248.07647 0.714286,40"
       id="path4231"
       inkscape:path-effect="#path-effect4233"
       inkscape:original-d="m 5.7142856,248.07647 0.714286,40"
       inkscape:connector-curvature="0" />
    <path
       style="fill:#000000;fill-opacity:1;stroke:#ffffff;stroke-width:0.71428573;stroke-opacity:1"
       d="m 7.2576196,286.96696 c -0.23846,-0.62142 -0.433563,-9.62142 -0.433563,-20 l 0,-18.87016 8.0357124,0.0104 c 16.15322,0.0208 42.92165,1.89488 61.83462,4.329 28.641401,3.68617 47.272531,9.77747 47.272531,15.45537 0,8.9698 -37.391481,16.85043 -92.467091,19.48838 -21.02695,1.00712 -23.7148374,0.96133 -24.2422094,-0.41297 z"
       id="path4235"
       inkscape:connector-curvature="0" />
    <path
       style="fill:none;stroke:#000000;stroke-width:1px;stroke-linecap:butt;stroke-linejoin:miter;stroke-opacity:1"
       d="m 5.0000006,470.21933 0,42.14285"
       id="path4237"
       inkscape:path-effect="#path-effect4239"
       inkscape:original-d="m 5.0000006,470.21933 0,42.14285"
       inkscape:connector-curvature="0" />
    <path
       style="fill:#000000;fill-opacity:1;stroke:#ffffff;stroke-width:0.71428573;stroke-opacity:1"
       d="m 6.1097706,491.58433 0,-20.14348 17.6785684,0.44503 c 44.26539,1.1143 84.249131,7.24457 96.045491,14.72561 9.28558,5.88874 0.78704,12.12259 -23.366911,17.14009 -16.53113,3.43402 -42.92722,6.18921 -65.35715,6.82189 -8.05357,0.22717 -16.97321,0.57982 -19.82143,0.78368 l -5.1785684,0.37066 0,-20.14348 z"
       id="path4241"
       inkscape:connector-curvature="0" />
    <path
       style="fill:none;stroke:#000000;stroke-width:1px;stroke-linecap:butt;stroke-linejoin:miter;stroke-opacity:1"
       d="m 294.28572,471.6479 0,40.71428"
       id="path4243"
       inkscape:path-effect="#path-effect4245"
       inkscape:original-d="m 294.28572,471.6479 0,40.71428"
       inkscape:connector-curvature="0" />
    <path
       style="fill:#000000;fill-opacity:1;stroke:#ffffff;stroke-width:0.71428573;stroke-opacity:1"
       d="m 261.82406,511.17576 c -9.92513,-0.46435 -31.55544,-2.48632 -41.42857,-3.87268 -44.03523,-6.18333 -56.57943,-15.53772 -32.03211,-23.8868 16.58657,-5.64146 50.88572,-9.92633 86.49639,-10.80569 l 18.39286,-0.45419 0,19.75591 0,19.75592 -13.39286,-0.13763 c -7.36607,-0.0757 -15.48214,-0.23537 -18.03571,-0.35484 z"
       id="path4247"
       inkscape:connector-curvature="0" />
    <path
       sodipodi:type="arc"
       style="fill:#ffff00;fill-opacity:1;stroke:#ffffff;stroke-opacity:1"
       id="path4116-9-4"
       sodipodi:cx="555.71429"
       sodipodi:cy="408.07648"
       sodipodi:rx="30"
       sodipodi:ry="30"
       d="m 585.71429,408.07648 a 30,30 0 1 1 -60,0 30,30 0 1 1 60,0 z"
       transform="matrix(0.20374707,0,0,0.20374707,-14.653727,-35.067919)" />
    <path
       sodipodi:type="arc"
       style="fill:#ffff00;fill-opacity:1;stroke:#ffffff;stroke-opacity:1"
       id="path4116-52"
       sodipodi:cx="555.71429"
       sodipodi:cy="408.07648"
       sodipodi:rx="30"
       sodipodi:ry="30"
       d="m 585.71429,408.07648 a 30,30 0 1 1 -60,0 30,30 0 1 1 60,0 z"
       transform="matrix(0.20374707,0,0,0.20374707,45.346269,-33.639347)" />
    <rect
       style="fill:#ff0000;fill-opacity:1;stroke:#ffffff;stroke-width:0.3375394;stroke-opacity:1"
       id="rect4157-6-1"
       width="14.948174"
       height="14.948174"
       x="181.09737"
       y="43.45953" />
    <path
       sodipodi:type="arc"
       style="fill:#ffff00;fill-opacity:1;stroke:#ffffff;stroke-opacity:1"
       id="path4116-93"
       sodipodi:cx="555.71429"
       sodipodi:cy="408.07648"
       sodipodi:rx="30"
       sodipodi:ry="30"
       d="m 585.71429,408.07648 a 30,30 0 1 1 -60,0 30,30 0 1 1 60,0 z"
       transform="matrix(0.20374707,0,0,0.20374707,73.917699,327.78923)" />
    <path
       sodipodi:type="arc"
       style="fill:#ffff00;fill-opacity:1;stroke:#ffffff;stroke-opacity:1"
       id="path4116-2"
       sodipodi:cx="555.71429"
       sodipodi:cy="408.07648"
       sodipodi:rx="30"
       sodipodi:ry="30"
       d="m 585.71429,408.07648 a 30,30 0 1 1 -60,0 30,30 0 1 1 60,0 z"
       transform="matrix(0.20374707,0,0,0.20374707,133.9177,324.93209)" />
    <rect
       style="fill:#ff0000;fill-opacity:1;stroke:#ffffff;stroke-width:0.3375394;stroke-opacity:1"
       id="rect4157-74"
       width="14.948174"
       height="14.948174"
       x="161.09732"
       y="163.45952" />
    <rect
       style="fill:#ff0000;fill-opacity:1;stroke:#ffffff;stroke-width:0.3375394;stroke-opacity:1"
       id="rect4157-6-9"
       width="14.948174"
       height="14.948174"
       x="209.66878"
       y="403.4595" />
    <rect
       style="fill:#ff0000;fill-opacity:1;stroke:#ffffff;stroke-width:0.3375394;stroke-opacity:1"
       id="rect4157-5"
       width="14.948174"
       height="14.948174"
       x="198.95448"
       y="310.60236" />
    <rect
       style="fill:#ff0000;fill-opacity:1;stroke:#ffffff;stroke-width:0.3375394;stroke-opacity:1"
       id="rect4157-2-2"
       width="14.948174"
       height="14.948174"
       x="233.24022"
       y="310.60236" />
    <rect
       style="fill:#ff0000;fill-opacity:1;stroke:#ffffff;stroke-width:0.3375394;stroke-opacity:1"
       id="rect4157-7-2"
       width="14.948174"
       height="14.948174"
       x="184.66875"
       y="332.03094" />
    <rect
       style="fill:#ff0000;fill-opacity:1;stroke:#ffffff;stroke-width:0.3375394;stroke-opacity:1"
       id="rect4157-3-5"
       width="14.948174"
       height="14.948174"
       x="214.66878"
       y="334.88809" />
    <rect
       style="fill:#ff0000;fill-opacity:1;stroke:#ffffff;stroke-width:0.3375394;stroke-opacity:1"
       id="rect4157-74-6"
       width="14.948174"
       height="14.948174"
       x="166.09731"
       y="309.1738" />
    <path
       sodipodi:type="arc"
       style="fill:#ffff00;fill-opacity:1;stroke:#ffffff;stroke-opacity:1"
       id="path4116-6"
       sodipodi:cx="555.71429"
       sodipodi:cy="408.07648"
       sodipodi:rx="30"
       sodipodi:ry="30"
       d="m 585.71429,408.07648 a 30,30 0 1 1 -60,0 30,30 0 1 1 60,0 z"
       transform="matrix(0.20374707,0,0,0.20374707,1.7748436,232.07494)" />
    <path
       sodipodi:type="arc"
       style="fill:#ffff00;fill-opacity:1;stroke:#ffffff;stroke-opacity:1"
       id="path4116-5-5"
       sodipodi:cx="555.71429"
       sodipodi:cy="408.07648"
       sodipodi:rx="30"
       sodipodi:ry="30"
       d="m 585.71429,408.07648 a 30,30 0 1 1 -60,0 30,30 0 1 1 60,0 z"
       transform="matrix(0.20374707,0,0,0.20374707,-32.510874,233.50351)" />
    <path
       sodipodi:type="arc"
       style="fill:#ffff00;fill-opacity:1;stroke:#ffffff;stroke-opacity:1"
       id="path4116-1-1"
       sodipodi:cx="555.71429"
       sodipodi:cy="408.07648"
       sodipodi:rx="30"
       sodipodi:ry="30"
       d="m 585.71429,408.07648 a 30,30 0 1 1 -60,0 30,30 0 1 1 60,0 z"
       transform="matrix(0.20374707,0,0,0.20374707,-58.225155,250.64636)" />
    <path
       sodipodi:type="arc"
       style="fill:#ffff00;fill-opacity:1;stroke:#ffffff;stroke-opacity:1"
       id="path4116-9-1"
       sodipodi:cx="555.71429"
       sodipodi:cy="408.07648"
       sodipodi:rx="30"
       sodipodi:ry="30"
       d="m 585.71429,408.07648 a 30,30 0 1 1 -60,0 30,30 0 1 1 60,0 z"
       transform="matrix(0.20374707,0,0,0.20374707,-19.653732,254.93208)" />
    <path
       sodipodi:type="arc"
       style="fill:#ffff00;fill-opacity:1;stroke:#ffffff;stroke-opacity:1"
       id="path4116-97-6"
       sodipodi:cx="555.71429"
       sodipodi:cy="408.07648"
       sodipodi:rx="30"
       sodipodi:ry="30"
       d="m 585.71429,408.07648 a 30,30 0 1 1 -60,0 30,30 0 1 1 60,0 z"
       transform="matrix(0.20374707,0,0,0.20374707,17.489129,254.93208)" />
    <path
       sodipodi:type="arc"
       style="fill:#ffff00;fill-opacity:1;stroke:#ffffff;stroke-opacity:1"
       id="path4116-5-7"
       sodipodi:cx="555.71429"
       sodipodi:cy="408.07648"
       sodipodi:rx="30"
       sodipodi:ry="30"
       d="m 585.71429,408.07648 a 30,30 0 1 1 -60,0 30,30 0 1 1 60,0 z"
       transform="matrix(0.20374707,0,0,0.20374707,-36.796589,443.5035)" />
    <path
       sodipodi:type="arc"
       style="fill:#ffff00;fill-opacity:1;stroke:#ffffff;stroke-opacity:1"
       id="path4116-1-0"
       sodipodi:cx="555.71429"
       sodipodi:cy="408.07648"
       sodipodi:rx="30"
       sodipodi:ry="30"
       d="m 585.71429,408.07648 a 30,30 0 1 1 -60,0 30,30 0 1 1 60,0 z"
       transform="matrix(0.20374707,0,0,0.20374707,-62.51087,460.64636)" />
    <path
       sodipodi:type="arc"
       style="fill:#ffff00;fill-opacity:1;stroke:#ffffff;stroke-opacity:1"
       id="path4116-9-10"
       sodipodi:cx="555.71429"
       sodipodi:cy="408.07648"
       sodipodi:rx="30"
       sodipodi:ry="30"
       d="m 585.71429,408.07648 a 30,30 0 1 1 -60,0 30,30 0 1 1 60,0 z"
       transform="matrix(0.20374707,0,0,0.20374707,-23.939447,464.93208)" />
    <path
       sodipodi:type="arc"
       style="fill:#ffff00;fill-opacity:1;stroke:#ffffff;stroke-opacity:1"
       id="path4116-97-66"
       sodipodi:cx="555.71429"
       sodipodi:cy="408.07648"
       sodipodi:rx="30"
       sodipodi:ry="30"
       d="m 585.71429,408.07648 a 30,30 0 1 1 -60,0 30,30 0 1 1 60,0 z"
       transform="matrix(0.20374707,0,0,0.20374707,13.203409,464.93208)" />
    <rect
       style="fill:#ff0000;fill-opacity:1;stroke:#ffffff;stroke-width:0.3375394;stroke-opacity:1"
       id="rect4157-5-4"
       width="14.948174"
       height="14.948174"
       x="200.38304"
       y="523.45953" />
    <rect
       style="fill:#ff0000;fill-opacity:1;stroke:#ffffff;stroke-width:0.3375394;stroke-opacity:1"
       id="rect4157-2-2-8"
       width="14.948174"
       height="14.948174"
       x="234.66878"
       y="523.45953" />
    <rect
       style="fill:#ff0000;fill-opacity:1;stroke:#ffffff;stroke-width:0.3375394;stroke-opacity:1"
       id="rect4157-7-2-9"
       width="14.948174"
       height="14.948174"
       x="186.09731"
       y="544.88812" />
    <rect
       style="fill:#ff0000;fill-opacity:1;stroke:#ffffff;stroke-width:0.3375394;stroke-opacity:1"
       id="rect4157-3-5-0"
       width="14.948174"
       height="14.948174"
       x="216.09734"
       y="547.7453" />
    <rect
       style="fill:#ff0000;fill-opacity:1;stroke:#ffffff;stroke-width:0.3375394;stroke-opacity:1"
       id="rect4157-74-6-0"
       width="14.948174"
       height="14.948174"
       x="167.52589"
       y="522.03101" />
    <rect
       style="fill:#ff0000;fill-opacity:1;stroke:#ffffff;stroke-width:0.3375394;stroke-opacity:1"
       id="rect4157-6-5"
       width="14.948174"
       height="14.948174"
       x="73.954483"
       y="402.74524" />
    <path
       sodipodi:type="arc"
       style="fill:#ffff00;fill-opacity:1;stroke:#ffffff;stroke-opacity:1"
       id="path4116-9-4-9"
       sodipodi:cx="555.71429"
       sodipodi:cy="408.07648"
       sodipodi:rx="30"
       sodipodi:ry="30"
       d="m 585.71429,408.07648 a 30,30 0 1 1 -60,0 30,30 0 1 1 60,0 z"
       transform="matrix(0.20374707,0,0,0.20374707,-60.368027,325.64637)" />
    <path
       sodipodi:type="arc"
       style="fill:#ffff00;fill-opacity:1;stroke:#ffffff;stroke-opacity:1"
       id="path4116-52-4"
       sodipodi:cx="555.71429"
       sodipodi:cy="408.07648"
       sodipodi:rx="30"
       sodipodi:ry="30"
       d="m 585.71429,408.07648 a 30,30 0 1 1 -60,0 30,30 0 1 1 60,0 z"
       transform="matrix(0.20374707,0,0,0.20374707,-0.36803743,327.07494)" />
    <rect
       style="fill:#ff0000;fill-opacity:1;stroke:#ffffff;stroke-width:0.3375394;stroke-opacity:1"
       id="rect4157-6-1-8"
       width="14.948174"
       height="14.948174"
       x="143.9545"
       y="402.74527" />
    <path
       sodipodi:type="arc"
       style="fill:#ffff00;fill-opacity:1;stroke:#ffffff;stroke-opacity:1"
       id="path4116-93-0"
       sodipodi:cx="555.71429"
       sodipodi:cy="408.07648"
       sodipodi:rx="30"
       sodipodi:ry="30"
       d="m 585.71429,408.07648 a 30,30 0 1 1 -60,0 30,30 0 1 1 60,0 z"
       transform="matrix(0.20374707,0,0,0.20374707,13.917709,-1.4964939)" />
    <path
       sodipodi:type="arc"
       style="fill:#ffff00;fill-opacity:1;stroke:#ffffff;stroke-opacity:1"
       id="path4116-2-7"
       sodipodi:cx="555.71429"
       sodipodi:cy="408.07648"
       sodipodi:rx="30"
       sodipodi:ry="30"
       d="m 585.71429,408.07648 a 30,30 0 1 1 -60,0 30,30 0 1 1 60,0 z"
       transform="matrix(0.20374707,0,0,0.20374707,73.917699,-4.353634)" />
    <rect
       style="fill:#ff0000;fill-opacity:1;stroke:#ffffff;stroke-width:0.3375394;stroke-opacity:1"
       id="rect4157-6-9-5"
       width="14.948174"
       height="14.948174"
       x="149.66876"
       y="74.17382" />
    <flowRoot
       xml:space="preserve"
       id="flowRoot4539"
       style="font-size:40px;font-style:normal;font-weight:normal;line-height:125%;letter-spacing:0px;word-spacing:0px;fill:#000000;fill-opacity:1;stroke:none;font-family:Bitstream Vera Sans"><flowRegion
         id="flowRegion4541"><rect
           id="rect4543"
           width="154.28572"
           height="75.714287"
           x="520"
           y="229.50504" /></flowRegion><flowPara
         id="flowPara4545">Punishment</flowPara></flowRoot>    <rect
       style="fill:#00ff00;fill-opacity:1;stroke:#ffffff;stroke-width:0.53945071;stroke-opacity:1"
       id="rect4555"
       width="16.183521"
       height="16.183521"
       x="-73.401703"
       y="193.58873"
       transform="matrix(0.70710678,-0.70710678,0.70710678,0.70710678,0,0)" />
    <rect
       style="fill:#00ff00;fill-opacity:1;stroke:#ffffff;stroke-width:0.53945071;stroke-opacity:1"
       id="rect4555-1"
       width="16.183521"
       height="16.183521"
       x="-297.65555"
       y="451.17761"
       transform="matrix(0.70710678,-0.70710678,0.70710678,0.70710678,0,0)" />
  </g>
</svg>
